# xmcd CD database file
#
# Track frame offsets:
#	150
#	24996
#	46630
#	66979
#	87545
#	107531
#	124302
#	148722
#	168823
#	193140
#
# Disc length: 2876 seconds
#
# Revision: 0
# Processed by: cddbd v1.4PL0 Copyright (c) Steve Scherf et al.
# Submitted via: CDex 1.50Beta7
#
DISCID=850b3a0a
DTITLE=Holéczy Ákos - Destinations
DYEAR=1900
DGENRE=Jazz
TTITLE0=Lovely Michelle
TTITLE1=The Web
TTITLE2=And I Love Her
TTITLE3=Destinations
TTITLE4=Beatiful Girl
TTITLE5=Cold Duck
TTITLE6=You've Got A Friend
TTITLE7=Walking Funky
TTITLE8=With A Message
TTITLE9=Overjoyed
EXTD=
EXTT0=
EXTT1=
EXTT2=
EXTT3=
EXTT4=
EXTT5=
EXTT6=
EXTT7=
EXTT8=
EXTT9=
PLAYORDER=
